<svg width="52" height="53" viewBox="0 0 52 53" fill="none" xmlns="http://www.w3.org/2000/svg">
<path d="M26 0C40.3594 0 52 11.7379 52 26.2168C51.9999 40.6955 40.3593 52.4326 26 52.4326C11.6407 52.4326 0.000121072 40.6955 0 26.2168C0 11.7379 11.6406 0 26 0Z" fill="white"/>
<path d="M22.1055 13.2695C24.2166 11.7226 27.0871 11.7226 29.1982 13.2695L36.9629 18.958C39.0929 20.519 39.7494 22.9061 39.2861 25.043L28 16.752V37.3242C28 38.4287 27.1044 39.3241 26 39.3242C24.8954 39.3242 24 38.4288 24 37.3242V16.8027L12.1396 25.5146C11.4651 23.2651 12.0532 20.635 14.3418 18.958L22.1055 13.2695Z" fill="#424242"/>
</svg>
